<svg width="227" height="50" viewBox="0 0 227 50" fill="none" xmlns="http://www.w3.org/2000/svg">
<path d="M184.415 22.9209C181.981 21.6362 180.071 19.8614 178.685 17.5963C177.299 15.3313 176.606 12.407 176.606 8.82353V4.29344C176.606 2.42732 178.12 0.912781 179.986 0.912781H189.858C191.724 0.912781 193.239 2.42732 193.239 4.29344V8.82353C193.239 11.1224 194.05 13.0832 195.673 14.7059C197.295 16.3286 199.253 17.14 201.552 17.14C203.85 17.14 205.875 16.2677 207.437 14.7059C209.06 13.0832 209.871 11.1224 209.871 8.82353V4.29344C209.871 2.42732 211.386 0.912781 213.252 0.912781H223.124C224.99 0.912781 226.504 2.42732 226.504 4.29344V8.82353C226.504 12.407 225.811 15.3313 224.425 17.5963C223.039 19.8614 221.129 21.6362 218.695 22.9209C207.853 28.0865 195.257 28.0865 184.415 22.9209Z" fill="black"/>
<path d="M193.239 45.6051V21.1968C193.239 19.3306 194.753 17.8161 196.619 17.8161H206.491C208.357 17.8161 209.871 19.3306 209.871 21.1968V45.6051C209.871 47.4713 208.357 48.9858 206.491 48.9858H196.619C194.753 48.9858 193.239 47.4713 193.239 45.6051Z" fill="black"/>
<path d="M148.783 0C152.231 0 155.477 0.659231 158.519 1.97769C161.562 3.29615 164.199 5.08789 166.43 7.35294C168.661 9.61798 170.436 12.2549 171.754 15.2637C173.073 18.2725 173.732 21.501 173.732 24.9493V45.6051C173.732 47.4712 172.218 48.9858 170.351 48.9858H160.48C158.614 48.9858 157.099 47.4712 157.099 45.6051V25.0777C157.099 22.8127 156.234 20.6153 154.625 19.023C153.015 17.4307 151.061 16.6295 148.783 16.6295C146.504 16.6295 144.557 17.4273 142.944 19.023C141.332 20.6153 140.466 22.8127 140.466 25.0777V45.6051C140.466 47.4712 138.952 48.9858 137.086 48.9858H127.214C125.348 48.9858 123.834 47.4712 123.834 45.6051V24.9493C123.834 21.501 124.493 18.2725 125.811 15.2637C127.13 12.2549 128.905 9.61798 131.136 7.35294C133.367 5.08789 136.004 3.29615 139.047 1.97769C142.089 0.659231 145.335 0 148.783 0Z" fill="black"/>
<path d="M69.9797 49.8817C63.3096 49.8817 57.0419 47.2819 52.3292 42.5592C47.6166 37.8364 45.0338 31.5619 45.0473 24.8918C45.0608 18.5058 47.5185 12.4206 51.9607 7.76201C56.4097 3.0967 62.3732 0.358364 68.7559 0.0507241C73.3062 -0.165638 77.8329 0.868841 81.8052 3.00542C85.4225 1.04464 89.4556 0.0202942 93.6443 0.0202942C100.314 0.0202942 106.582 2.62002 111.295 7.34281C116.007 12.0656 118.59 18.3401 118.577 25.0101C118.563 31.3962 116.105 37.4814 111.663 42.14C107.214 46.8053 101.251 49.5436 94.8681 49.8512C90.3177 50.071 85.791 49.0331 81.8187 46.8965C78.2014 48.8573 74.1683 49.8817 69.9797 49.8817ZM81.7951 29.4219C84.2122 29.4219 86.6362 30.1826 88.7051 31.7039C89.7903 32.5017 91.6057 33.4212 94.0669 33.3063C98.4347 33.0967 101.998 29.3543 102.008 24.9696C102.015 22.7316 101.146 20.6254 99.5638 19.0399C97.9817 17.4544 95.8789 16.5822 93.6409 16.5822C91.839 16.5822 90.125 17.1433 88.6849 18.2083C84.5841 21.2339 79.0533 21.2306 74.9154 18.1947C73.8302 17.3969 72.0148 16.4706 69.5537 16.5923C65.1859 16.8019 61.6227 20.5443 61.6125 24.929C61.6058 27.167 62.4746 29.2732 64.0567 30.8587C65.6389 32.4442 67.7417 33.3164 69.9797 33.3164C71.7815 33.3164 73.4955 32.7552 74.9357 31.6903C76.981 30.1792 79.3847 29.4253 81.7951 29.4253V29.4219Z" fill="#CDFF21"/>
<path d="M69.9797 49.8817C63.3096 49.8817 57.0419 47.2819 52.3292 42.5592C47.6166 37.8364 45.0338 31.5619 45.0473 24.8918C45.0608 18.5058 47.5185 12.4206 51.9607 7.76201C56.4097 3.0967 62.3732 0.358364 68.7559 0.0507241C73.3062 -0.165638 77.8329 0.868841 81.8052 3.00542C85.4225 1.04464 89.4556 0.0202942 93.6443 0.0202942C100.314 0.0202942 106.582 2.62002 111.295 7.34281C116.007 12.0656 118.59 18.3401 118.577 25.0101C118.563 31.3962 116.105 37.4814 111.663 42.14C107.214 46.8053 101.251 49.5436 94.8681 49.8512C90.3177 50.071 85.791 49.0331 81.8187 46.8965C78.2014 48.8573 74.1683 49.8817 69.9797 49.8817ZM81.7951 29.4219C84.2122 29.4219 86.6362 30.1826 88.7051 31.7039C89.7903 32.5017 91.6057 33.4212 94.0669 33.3063C98.4347 33.0967 101.998 29.3543 102.008 24.9696C102.015 22.7316 101.146 20.6254 99.5638 19.0399C97.9817 17.4544 95.8789 16.5822 93.6409 16.5822C91.839 16.5822 90.125 17.1433 88.6849 18.2083C84.5841 21.2339 79.0533 21.2306 74.9154 18.1947C73.8302 17.3969 72.0148 16.4706 69.5537 16.5923C65.1859 16.8019 61.6227 20.5443 61.6125 24.929C61.6058 27.167 62.4746 29.2732 64.0567 30.8587C65.6389 32.4442 67.7417 33.3164 69.9797 33.3164C71.7815 33.3164 73.4955 32.7552 74.9357 31.6903C76.981 30.1792 79.3847 29.4253 81.7951 29.4253V29.4219Z" fill="url(#paint0_linear_177_193)"/>
<path d="M24.9493 16.7343C22.6504 16.7343 20.6897 17.5457 19.0669 19.1684C17.5051 20.7302 16.6329 22.8431 16.6329 25.0507C16.6329 27.3496 17.4442 29.3104 19.0669 30.9331C20.6897 32.5558 22.6504 33.3671 24.9493 33.3671H38.1001C39.9662 33.3671 41.4807 34.8817 41.4807 36.7478V46.6193C41.4807 48.4855 39.9662 50 38.1001 50H24.9493C21.501 50 18.2556 49.3408 15.213 48.0223C12.1704 46.7038 9.53346 44.929 7.30222 42.6978C5.07098 40.4665 3.29614 37.8296 1.97768 34.787C0.659221 31.7444 0 28.499 0 25.0507C0 21.6024 0.659221 18.357 1.97768 15.3144C3.29614 12.2718 5.07098 9.63491 7.30222 7.40367C9.53346 5.17243 12.1704 3.39759 15.213 2.07913C18.2556 0.760671 21.501 0.10144 24.9493 0.10144H38.1001C39.9662 0.10144 41.4807 1.61598 41.4807 3.4821V13.3536C41.4807 15.2198 39.9662 16.7343 38.1001 16.7343H24.9493Z" fill="black"/>
<defs>
<linearGradient id="paint0_linear_177_193" x1="81.812" y1="49.8817" x2="81.812" y2="0.0169148" gradientUnits="userSpaceOnUse">
<stop offset="0.33" stop-color="#00B546"/>
<stop offset="1" stop-color="#00B546" stop-opacity="0.05"/>
</linearGradient>
</defs>
</svg>
