<svg width="227" height="128" viewBox="0 0 227 128" fill="none" xmlns="http://www.w3.org/2000/svg">
<path d="M184.415 62.9209C181.981 61.6362 180.071 59.8614 178.685 57.5963C177.299 55.3313 176.606 52.407 176.606 48.8235V44.2934C176.606 42.4273 178.12 40.9128 179.986 40.9128H189.858C191.724 40.9128 193.239 42.4273 193.239 44.2934V48.8235C193.239 51.1224 194.05 53.0832 195.673 54.7059C197.295 56.3286 199.253 57.14 201.552 57.14C203.85 57.14 205.875 56.2677 207.437 54.7059C209.06 53.0832 209.871 51.1224 209.871 48.8235V44.2934C209.871 42.4273 211.386 40.9128 213.252 40.9128H223.124C224.99 40.9128 226.504 42.4273 226.504 44.2934V48.8235C226.504 52.407 225.811 55.3313 224.425 57.5963C223.039 59.8614 221.129 61.6362 218.695 62.9209C207.853 68.0865 195.257 68.0865 184.415 62.9209Z" fill="black"/>
<path d="M193.239 85.6051V61.1968C193.239 59.3306 194.753 57.8161 196.619 57.8161H206.491C208.357 57.8161 209.871 59.3306 209.871 61.1968V85.6051C209.871 87.4713 208.357 88.9858 206.491 88.9858H196.619C194.753 88.9858 193.239 87.4713 193.239 85.6051Z" fill="black"/>
<path d="M148.783 40C152.231 40 155.477 40.6592 158.519 41.9777C161.562 43.2961 164.199 45.0879 166.43 47.3529C168.661 49.618 170.436 52.2549 171.754 55.2637C173.073 58.2725 173.732 61.501 173.732 64.9493V85.6051C173.732 87.4712 172.218 88.9858 170.351 88.9858H160.48C158.614 88.9858 157.099 87.4712 157.099 85.6051V65.0777C157.099 62.8127 156.234 60.6153 154.625 59.023C153.015 57.4307 151.061 56.6295 148.783 56.6295C146.504 56.6295 144.557 57.4273 142.944 59.023C141.332 60.6153 140.466 62.8127 140.466 65.0777V85.6051C140.466 87.4712 138.952 88.9858 137.086 88.9858H127.214C125.348 88.9858 123.834 87.4712 123.834 85.6051V64.9493C123.834 61.501 124.493 58.2725 125.811 55.2637C127.13 52.2549 128.905 49.618 131.136 47.3529C133.367 45.0879 136.004 43.2961 139.047 41.9777C142.089 40.6592 145.335 40 148.783 40Z" fill="black"/>
<path d="M69.9797 89.8817C63.3096 89.8817 57.0419 87.2819 52.3292 82.5592C47.6166 77.8364 45.0338 71.5619 45.0473 64.8918C45.0608 58.5058 47.5185 52.4206 51.9607 47.762C56.4097 43.0967 62.3732 40.3584 68.7559 40.0507C73.3062 39.8344 77.8329 40.8688 81.8052 43.0054C85.4225 41.0446 89.4556 40.0203 93.6443 40.0203C100.314 40.0203 106.582 42.62 111.295 47.3428C116.007 52.0656 118.59 58.3401 118.577 65.0101C118.563 71.3962 116.105 77.4814 111.663 82.14C107.214 86.8053 101.251 89.5436 94.8681 89.8512C90.3177 90.071 85.791 89.0331 81.8187 86.8965C78.2014 88.8573 74.1683 89.8817 69.9797 89.8817ZM81.7951 69.4219C84.2122 69.4219 86.6362 70.1826 88.7051 71.7039C89.7903 72.5017 91.6057 73.4212 94.0669 73.3063C98.4347 73.0967 101.998 69.3543 102.008 64.9696C102.015 62.7316 101.146 60.6254 99.5638 59.0399C97.9817 57.4544 95.8789 56.5822 93.6409 56.5822C91.839 56.5822 90.125 57.1433 88.6849 58.2083C84.5841 61.2339 79.0533 61.2306 74.9154 58.1947C73.8302 57.3969 72.0148 56.4706 69.5537 56.5923C65.1859 56.8019 61.6227 60.5443 61.6125 64.929C61.6058 67.167 62.4746 69.2732 64.0567 70.8587C65.6389 72.4442 67.7417 73.3164 69.9797 73.3164C71.7815 73.3164 73.4955 72.7552 74.9357 71.6903C76.981 70.1792 79.3847 69.4253 81.7951 69.4253V69.4219Z" fill="#CDFF21"/>
<path d="M69.9797 89.8817C63.3096 89.8817 57.0419 87.2819 52.3292 82.5592C47.6166 77.8364 45.0338 71.5619 45.0473 64.8918C45.0608 58.5058 47.5185 52.4206 51.9607 47.762C56.4097 43.0967 62.3732 40.3584 68.7559 40.0507C73.3062 39.8344 77.8329 40.8688 81.8052 43.0054C85.4225 41.0446 89.4556 40.0203 93.6443 40.0203C100.314 40.0203 106.582 42.62 111.295 47.3428C116.007 52.0656 118.59 58.3401 118.577 65.0101C118.563 71.3962 116.105 77.4814 111.663 82.14C107.214 86.8053 101.251 89.5436 94.8681 89.8512C90.3177 90.071 85.791 89.0331 81.8187 86.8965C78.2014 88.8573 74.1683 89.8817 69.9797 89.8817ZM81.7951 69.4219C84.2122 69.4219 86.6362 70.1826 88.7051 71.7039C89.7903 72.5017 91.6057 73.4212 94.0669 73.3063C98.4347 73.0967 101.998 69.3543 102.008 64.9696C102.015 62.7316 101.146 60.6254 99.5638 59.0399C97.9817 57.4544 95.8789 56.5822 93.6409 56.5822C91.839 56.5822 90.125 57.1433 88.6849 58.2083C84.5841 61.2339 79.0533 61.2306 74.9154 58.1947C73.8302 57.3969 72.0148 56.4706 69.5537 56.5923C65.1859 56.8019 61.6227 60.5443 61.6125 64.929C61.6058 67.167 62.4746 69.2732 64.0567 70.8587C65.6389 72.4442 67.7417 73.3164 69.9797 73.3164C71.7815 73.3164 73.4955 72.7552 74.9357 71.6903C76.981 70.1792 79.3847 69.4253 81.7951 69.4253V69.4219Z" fill="url(#paint0_linear_205_142)"/>
<path d="M24.9493 56.7343C22.6504 56.7343 20.6897 57.5457 19.0669 59.1684C17.5051 60.7302 16.6329 62.8432 16.6329 65.0507C16.6329 67.3496 17.4442 69.3104 19.0669 70.9331C20.6897 72.5558 22.6504 73.3672 24.9493 73.3672H38.1001C39.9662 73.3672 41.4807 74.8817 41.4807 76.7478V86.6193C41.4807 88.4855 39.9662 90 38.1001 90H24.9493C21.501 90 18.2556 89.3408 15.213 88.0223C12.1704 86.7039 9.53346 84.929 7.30222 82.6978C5.07098 80.4665 3.29614 77.8296 1.97768 74.787C0.659221 71.7444 0 68.499 0 65.0507C0 61.6024 0.659221 58.357 1.97768 55.3144C3.29614 52.2718 5.07098 49.6349 7.30222 47.4037C9.53346 45.1724 12.1704 43.3976 15.213 42.0791C18.2556 40.7607 21.501 40.1014 24.9493 40.1014H38.1001C39.9662 40.1014 41.4807 41.616 41.4807 43.4821V53.3536C41.4807 55.2198 39.9662 56.7343 38.1001 56.7343H24.9493Z" fill="black"/>
<defs>
<linearGradient id="paint0_linear_205_142" x1="81.812" y1="89.8817" x2="81.812" y2="40.0169" gradientUnits="userSpaceOnUse">
<stop offset="0.33" stop-color="#00B546"/>
<stop offset="1" stop-color="#00B546" stop-opacity="0.05"/>
</linearGradient>
</defs>
</svg>
